<svg xmlns:xlink="http://www.w3.org/1999/xlink" width="1541.76" height="513.6" viewBox="0 0 1156.32 385.2" xmlns="http://www.w3.org/2000/svg"><defs><style>*{stroke-linejoin:round;stroke-linecap:butt}</style></defs><g id="figure_1"><path d="M0 385.2h1156.32V0H0z" fill="#ffffff" id="patch_1"/><g id="axes_1"><path d="M955.024 304.478h12.05l-6.025 8.69z" clip-path="url(#p77eca1ce1b)" fill="#778899" id="patch_2"/><path d="M1001.369 304.478h12.05l-6.026 8.69z" clip-path="url(#p77eca1ce1b)" fill="#778899" id="patch_3"/><path d="M333.546 83.3h699.8" clip-path="url(#p77eca1ce1b)" fill="none" stroke="#000000" stroke-width="2" stroke-linecap="square" id="line2d_1"/><path d="M333.546 129.644h699.8" clip-path="url(#p77eca1ce1b)" fill="none" stroke="#000000" stroke-width="2" stroke-linecap="square" id="line2d_2"/><path d="M333.546 175.988h699.8" clip-path="url(#p77eca1ce1b)" fill="none" stroke="#000000" stroke-width="2" stroke-linecap="square" id="line2d_3"/><path d="M333.546 222.333h699.8" clip-path="url(#p77eca1ce1b)" fill="none" stroke="#000000" stroke-width="2" stroke-linecap="square" id="line2d_4"/><path d="M333.546 268.677h699.8" clip-path="url(#p77eca1ce1b)" fill="none" stroke="#000000" stroke-width="2" stroke-linecap="square" id="line2d_5"/><path d="M333.546 313.515h699.8" clip-path="url(#p77eca1ce1b)" fill="none" stroke="#778899" stroke-width="2" stroke-linecap="square" id="line2d_6"/><path d="M333.546 316.528h699.8" clip-path="url(#p77eca1ce1b)" fill="none" stroke="#778899" stroke-width="2" stroke-linecap="square" id="line2d_7"/><path d="M342.815 319.656l4.635-9.27" clip-path="url(#p77eca1ce1b)" fill="none" stroke="#778899" stroke-width="1.5" stroke-linecap="square" id="line2d_8"/><path d="M404.917 129.644V83.299" clip-path="url(#p77eca1ce1b)" fill="none" stroke="#6fa4ff" stroke-width="2" stroke-linecap="square" id="line2d_9"/><path d="M442.224 106.472h18.074V60.127h-18.074z" clip-path="url(#p77eca1ce1b)" fill="#bdbdbd" opacity="0.6" id="patch_4"/><path d="M442.224 152.816h18.074v-46.344h-18.074z" clip-path="url(#p77eca1ce1b)" fill="#bdbdbd" opacity="0.6" id="patch_5"/><path d="M442.224 199.16h18.074v-46.344h-18.074z" clip-path="url(#p77eca1ce1b)" fill="#bdbdbd" opacity="0.6" id="patch_6"/><path d="M442.224 245.505h18.074V199.16h-18.074z" clip-path="url(#p77eca1ce1b)" fill="#bdbdbd" opacity="0.6" id="patch_7"/><path d="M442.224 291.85h18.074v-46.345h-18.074z" clip-path="url(#p77eca1ce1b)" fill="#bdbdbd" opacity="0.6" id="patch_8"/><path d="M497.605 83.3v92.688" clip-path="url(#p77eca1ce1b)" fill="none" stroke="#6fa4ff" stroke-width="2" stroke-linecap="square" id="line2d_10"/><path d="M543.95 129.644v92.689" clip-path="url(#p77eca1ce1b)" fill="none" stroke="#6fa4ff" stroke-width="2" stroke-linecap="square" id="line2d_11"/><path d="M581.257 106.472h18.074V60.127h-18.074z" clip-path="url(#p77eca1ce1b)" fill="#bdbdbd" opacity="0.6" id="patch_9"/><path d="M581.257 152.816h18.074v-46.344h-18.074z" clip-path="url(#p77eca1ce1b)" fill="#bdbdbd" opacity="0.6" id="patch_10"/><path d="M581.257 199.16h18.074v-46.344h-18.074z" clip-path="url(#p77eca1ce1b)" fill="#bdbdbd" opacity="0.6" id="patch_11"/><path d="M581.257 245.505h18.074V199.16h-18.074z" clip-path="url(#p77eca1ce1b)" fill="#bdbdbd" opacity="0.6" id="patch_12"/><path d="M581.257 291.85h18.074v-46.345h-18.074z" clip-path="url(#p77eca1ce1b)" fill="#bdbdbd" opacity="0.6" id="patch_13"/><path d="M673.946 106.472h18.074V60.127h-18.074z" clip-path="url(#p77eca1ce1b)" fill="#bdbdbd" opacity="0.6" id="patch_14"/><path d="M673.946 152.816h18.074v-46.344h-18.074z" clip-path="url(#p77eca1ce1b)" fill="#bdbdbd" opacity="0.6" id="patch_15"/><path d="M673.946 199.16h18.074v-46.344h-18.074z" clip-path="url(#p77eca1ce1b)" fill="#bdbdbd" opacity="0.6" id="patch_16"/><path d="M673.946 245.505h18.074V199.16h-18.074z" clip-path="url(#p77eca1ce1b)" fill="#bdbdbd" opacity="0.6" id="patch_17"/><path d="M673.946 291.85h18.074v-46.345h-18.074z" clip-path="url(#p77eca1ce1b)" fill="#bdbdbd" opacity="0.6" id="patch_18"/><path d="M729.327 175.988v92.689" clip-path="url(#p77eca1ce1b)" fill="none" stroke="#6fa4ff" stroke-width="2" stroke-linecap="square" id="line2d_12"/><path d="M766.634 106.472h18.075V60.127h-18.075z" clip-path="url(#p77eca1ce1b)" fill="#bdbdbd" opacity="0.6" id="patch_19"/><path d="M766.634 152.816h18.075v-46.344h-18.075z" clip-path="url(#p77eca1ce1b)" fill="#bdbdbd" opacity="0.6" id="patch_20"/><path d="M766.634 199.16h18.075v-46.344h-18.075z" clip-path="url(#p77eca1ce1b)" fill="#bdbdbd" opacity="0.6" id="patch_21"/><path d="M766.634 245.505h18.075V199.16h-18.075z" clip-path="url(#p77eca1ce1b)" fill="#bdbdbd" opacity="0.6" id="patch_22"/><path d="M766.634 291.85h18.075v-46.345h-18.075z" clip-path="url(#p77eca1ce1b)" fill="#bdbdbd" opacity="0.6" id="patch_23"/><path d="M822.016 268.677v-46.344" clip-path="url(#p77eca1ce1b)" fill="none" stroke="#6fa4ff" stroke-width="2" stroke-linecap="square" id="line2d_13"/><path d="M905.668 106.472h18.074V60.127h-18.074z" clip-path="url(#p77eca1ce1b)" fill="#bdbdbd" opacity="0.6" id="patch_24"/><path d="M905.668 152.816h18.074v-46.344h-18.074z" clip-path="url(#p77eca1ce1b)" fill="#bdbdbd" opacity="0.6" id="patch_25"/><path d="M905.668 199.16h18.074v-46.344h-18.074z" clip-path="url(#p77eca1ce1b)" fill="#bdbdbd" opacity="0.6" id="patch_26"/><path d="M905.668 245.505h18.074V199.16h-18.074z" clip-path="url(#p77eca1ce1b)" fill="#bdbdbd" opacity="0.6" id="patch_27"/><path d="M905.668 291.85h18.074v-46.345h-18.074z" clip-path="url(#p77eca1ce1b)" fill="#bdbdbd" opacity="0.6" id="patch_28"/><path d="M962.555 222.333v82.145" clip-path="url(#p77eca1ce1b)" fill="none" stroke="#778899" stroke-width="2" stroke-linecap="square" id="line2d_14"/><path d="M959.543 222.333v82.145" clip-path="url(#p77eca1ce1b)" fill="none" stroke="#778899" stroke-width="2" stroke-linecap="square" id="line2d_15"/><path d="M1008.9 268.677v35.801" clip-path="url(#p77eca1ce1b)" fill="none" stroke="#778899" stroke-width="2" stroke-linecap="square" id="line2d_16"/><path d="M1005.887 268.677v35.801" clip-path="url(#p77eca1ce1b)" fill="none" stroke="#778899" stroke-width="2" stroke-linecap="square" id="line2d_17"/><path d="M491.58 89.324l12.05-12.05" clip-path="url(#p77eca1ce1b)" fill="none" stroke="#6fa4ff" stroke-width="2" stroke-linecap="square" id="line2d_18"/><path d="M491.58 77.275l12.05 12.05" clip-path="url(#p77eca1ce1b)" fill="none" stroke="#6fa4ff" stroke-width="2" stroke-linecap="square" id="line2d_19"/><path d="M491.58 182.013l12.05-12.05" clip-path="url(#p77eca1ce1b)" fill="none" stroke="#6fa4ff" stroke-width="2" stroke-linecap="square" id="line2d_20"/><path d="M491.58 169.963l12.05 12.05" clip-path="url(#p77eca1ce1b)" fill="none" stroke="#6fa4ff" stroke-width="2" stroke-linecap="square" id="line2d_21"/><path d="M537.925 135.669l12.05-12.05" clip-path="url(#p77eca1ce1b)" fill="none" stroke="#6fa4ff" stroke-width="2" stroke-linecap="square" id="line2d_22"/><path d="M537.925 123.62l12.05 12.049" clip-path="url(#p77eca1ce1b)" fill="none" stroke="#6fa4ff" stroke-width="2" stroke-linecap="square" id="line2d_23"/><path d="M537.925 228.357l12.05-12.05" clip-path="url(#p77eca1ce1b)" fill="none" stroke="#6fa4ff" stroke-width="2" stroke-linecap="square" id="line2d_24"/><path d="M537.925 216.308l12.05 12.05" clip-path="url(#p77eca1ce1b)" fill="none" stroke="#6fa4ff" stroke-width="2" stroke-linecap="square" id="line2d_25"/><path d="M723.302 182.013l12.05-12.05" clip-path="url(#p77eca1ce1b)" fill="none" stroke="#6fa4ff" stroke-width="2" stroke-linecap="square" id="line2d_26"/><path d="M723.302 169.963l12.05 12.05" clip-path="url(#p77eca1ce1b)" fill="none" stroke="#6fa4ff" stroke-width="2" stroke-linecap="square" id="line2d_27"/><path d="M723.302 274.702l12.05-12.05" clip-path="url(#p77eca1ce1b)" fill="none" stroke="#6fa4ff" stroke-width="2" stroke-linecap="square" id="line2d_28"/><path d="M723.302 262.652l12.05 12.05" clip-path="url(#p77eca1ce1b)" fill="none" stroke="#6fa4ff" stroke-width="2" stroke-linecap="square" id="line2d_29"/><path d="M343.51 98.361h30.124V68.238H343.51z" clip-path="url(#p77eca1ce1b)" fill="#6fa4ff" stroke="#6fa4ff" stroke-width="1.5" id="patch_29"/><path d="M404.917 87.818a4.519 4.519 0 1 0 0-9.037 4.519 4.519 0 0 0 0 9.037z" clip-path="url(#p77eca1ce1b)" fill="#6fa4ff" stroke="#6fa4ff" stroke-width="1.5" id="patch_30"/><path d="M404.917 140.187a10.544 10.544 0 1 0 0-21.087 10.544 10.544 0 0 0 0 21.087z" clip-path="url(#p77eca1ce1b)" fill="#6fa4ff" stroke="#6fa4ff" stroke-width="2" id="patch_31"/><path d="M621.577 191.05H651.7v-30.124h-30.123z" clip-path="url(#p77eca1ce1b)" fill="#05bab6" stroke="#05bab6" stroke-width="1.5" id="patch_32"/><path d="M822.016 226.851a4.519 4.519 0 1 0 0-9.037 4.519 4.519 0 0 0 0 9.037z" clip-path="url(#p77eca1ce1b)" fill="#6fa4ff" stroke="#6fa4ff" stroke-width="1.5" id="patch_33"/><path d="M822.016 279.22a10.544 10.544 0 1 0 0-21.087 10.544 10.544 0 0 0 0 21.087z" clip-path="url(#p77eca1ce1b)" fill="#6fa4ff" stroke="#6fa4ff" stroke-width="2" id="patch_34"/><path d="M853.298 237.395h30.124V207.27h-30.124z" clip-path="url(#p77eca1ce1b)" fill="#6fa4ff" stroke="#6fa4ff" stroke-width="1.5" id="patch_35"/><path d="M945.987 237.395h30.124V207.27h-30.124z" clip-path="url(#p77eca1ce1b)" stroke="#000000" stroke-width="1.5" id="patch_36"/><path d="M971.592 226.851a10.547 10.547 0 0 0-10.543-10.543 10.547 10.547 0 0 0-10.543 10.543" clip-path="url(#p77eca1ce1b)" fill="none" stroke="#ffffff" stroke-width="2" id="patch_37"/><path d="M961.05 226.851l10.542-10.543" clip-path="url(#p77eca1ce1b)" fill="none" stroke="#ffffff" stroke-width="2" stroke-linecap="square" id="line2d_30"/><path d="M992.332 283.739h30.123v-30.124h-30.123z" clip-path="url(#p77eca1ce1b)" stroke="#000000" stroke-width="1.5" id="patch_38"/><path d="M1017.937 273.196a10.547 10.547 0 0 0-10.544-10.544 10.547 10.547 0 0 0-10.543 10.544" clip-path="url(#p77eca1ce1b)" fill="none" stroke="#ffffff" stroke-width="2" id="patch_39"/><path d="M1007.393 273.196l10.544-10.544" clip-path="url(#p77eca1ce1b)" fill="none" stroke="#ffffff" stroke-width="2" stroke-linecap="square" id="line2d_31"/><g clip-path="url(#p77eca1ce1b)" id="text_1"><g transform="matrix(.1625 0 0 -.1625 253.427 87.783)"><defs><path id="DejaVuSans-Oblique-74" d="M2706 3500l-87-447H1472l-372-1900q-19-106-28-178t-9-112q0-200 120-291t386-91h581L2053 0h-550Q991 0 739 200 488 400 488 806q0 72 9 158t28 189l372 1900H409l91 447h478l194 994h575l-191-994h1150z" transform="scale(.01563)"/><path id="DejaVuSans-Oblique-65" d="M3078 2063q10 50 14 103 5 53 5 106 0 381-224 603-223 222-607 222-428 0-757-271-328-270-496-767l2065 4zm500-450H903q-19-119-25-188t-6-119q0-434 267-672 267-237 755-237 375 0 709 84 335 85 622 247l-109-569Q2806 34 2476-28q-329-63-670-63-728 0-1120 348-392 349-392 990 0 547 195 1017t574 839q243 231 579 356t714 125q594 0 945-356 352-356 352-956 0-144-19-308-18-164-56-351z" transform="scale(.01563)"/><path id="DejaVuSans-Oblique-6c" d="M1172 4863h575L800 0H225l947 4863z" transform="scale(.01563)"/><path id="DejaVuSans-Oblique-6f" d="M1625-91q-616 0-974 380-357 380-357 1036 0 381 123 776 124 396 321 665 309 418 690 618t863 200q597 0 964-372 367-371 367-971 0-416-122-829-122-412-319-684-306-419-687-619T1625-91zM891 1344q0-475 198-711 199-236 602-236 578 0 957 504 380 505 380 1280 0 453-203 684-203 232-597 232-325 0-578-152-253-151-453-461-147-231-227-528-79-297-79-612z" transform="scale(.01563)"/><path id="DejaVuSans-Oblique-6d" d="M5747 2113L5338 0h-575l403 2094q25 134 37 231 13 97 13 166 0 281-157 437-156 156-437 156-419 0-747-314t-425-817L3066 0h-575l409 2094q25 115 37 213 13 99 13 177 0 285-156 442-156 158-431 158-425 0-754-314-328-314-425-817L800 0H225l684 3500h575l-109-544q234 307 548 467 315 161 674 161 381 0 626-200 246-200 296-556 262 369 607 562 346 194 730 194 450 0 695-259 246-259 246-734 0-103-13-227-12-123-37-251z" transform="scale(.01563)"/><path id="DejaVuSans-30" d="M2034 4250q-487 0-733-480-245-479-245-1442 0-959 245-1439 246-480 733-480 491 0 736 480 246 480 246 1439 0 963-246 1442-245 480-736 480zm0 500q785 0 1199-621 414-620 414-1801 0-1178-414-1799Q2819-91 2034-91q-784 0-1198 620-414 621-414 1799 0 1181 414 1801 414 621 1198 621z" transform="scale(.01563)"/></defs><use xlink:href="#DejaVuSans-Oblique-74" transform="translate(0 .016)"/><use xlink:href="#DejaVuSans-Oblique-65" transform="translate(39.209 .016)"/><use xlink:href="#DejaVuSans-Oblique-6c" transform="translate(100.732 .016)"/><use xlink:href="#DejaVuSans-Oblique-65" transform="translate(128.516 .016)"/><use xlink:href="#DejaVuSans-Oblique-74" transform="translate(190.04 .016)"/><use xlink:href="#DejaVuSans-Oblique-6f" transform="translate(229.248 .016)"/><use xlink:href="#DejaVuSans-Oblique-6d" transform="translate(290.43 .016)"/><use xlink:href="#DejaVuSans-30" transform="matrix(.7 0 0 .7 387.842 -16.39)"/></g></g><g clip-path="url(#p77eca1ce1b)" id="text_2"><g transform="matrix(.1625 0 0 -.1625 253.427 134.128)"><defs><path id="DejaVuSans-31" d="M794 531h1031v3560L703 3866v575l1116 225h631V531h1031V0H794v531z" transform="scale(.01563)"/></defs><use xlink:href="#DejaVuSans-Oblique-74" transform="translate(0 .016)"/><use xlink:href="#DejaVuSans-Oblique-65" transform="translate(39.209 .016)"/><use xlink:href="#DejaVuSans-Oblique-6c" transform="translate(100.732 .016)"/><use xlink:href="#DejaVuSans-Oblique-65" transform="translate(128.516 .016)"/><use xlink:href="#DejaVuSans-Oblique-74" transform="translate(190.04 .016)"/><use xlink:href="#DejaVuSans-Oblique-6f" transform="translate(229.248 .016)"/><use xlink:href="#DejaVuSans-Oblique-6d" transform="translate(290.43 .016)"/><use xlink:href="#DejaVuSans-31" transform="matrix(.7 0 0 .7 387.842 -16.39)"/></g></g><g clip-path="url(#p77eca1ce1b)" id="text_3"><g transform="matrix(.1625 0 0 -.1625 286.252 180.472)"><defs><path id="DejaVuSans-Oblique-61" d="M3438 1997L3047 0h-575l106 531q-253-312-577-467-323-155-720-155-447 0-733 273-285 274-285 702 0 613 489 969t1348 356h800l31 154q7 25 10 54 3 30 3 92 0 279-227 433-226 155-636 155-281 0-577-72-295-72-607-216l100 532q325 122 636 182 311 61 601 61 619 0 942-269 324-268 324-781 0-103-16-242-15-139-46-295zm-622-238h-575q-707 0-1046-189T856 984q0-275 173-431 174-156 480-156 469 0 819 336t463 898l25 128z" transform="scale(.01563)"/><path id="DejaVuSans-Oblique-69" d="M1172 4863h575l-141-729h-575l141 729zM909 3500h575L800 0H225l684 3500z" transform="scale(.01563)"/><path id="DejaVuSans-Oblique-63" d="M3431 3366l-115-569q-207 150-440 225-232 75-482 75-275 0-524-97-248-97-417-275-269-272-416-638-146-365-146-756 0-472 236-703t717-231q237 0 504 72 268 72 558 215l-109-568Q2547 13 2283-39t-542-52q-697 0-1072 348-375 349-375 996 0 544 195 1002t580 823q262 250 615 378 354 128 772 128 244 0 484-55 241-54 491-163z" transform="scale(.01563)"/></defs><use xlink:href="#DejaVuSans-Oblique-61" transform="translate(0 .016)"/><use xlink:href="#DejaVuSans-Oblique-6c" transform="translate(61.28 .016)"/><use xlink:href="#DejaVuSans-Oblique-69" transform="translate(89.063 .016)"/><use xlink:href="#DejaVuSans-Oblique-63" transform="translate(116.846 .016)"/><use xlink:href="#DejaVuSans-Oblique-65" transform="translate(171.826 .016)"/></g></g><g clip-path="url(#p77eca1ce1b)" id="text_4"><g transform="matrix(.1625 0 0 -.1625 285.927 226.817)"><defs><path id="DejaVuSans-Oblique-62" d="M3169 2138q0 453-208 709t-573 256q-266 0-499-130-233-129-405-376-181-259-286-602-104-342-104-682 0-432 204-677 205-245 565-245 271 0 502 126 232 127 407 374 178 256 287 596 110 341 110 651zm-1788 831q213 287 533 451t670 164q538 0 855-363 317-362 317-980 0-507-186-982t-529-843q-225-244-519-376-294-131-616-131-340 0-590 156-250 157-407 466L806 0H231l947 4863h575l-372-1894z" transform="scale(.01563)"/></defs><use xlink:href="#DejaVuSans-Oblique-62" transform="translate(0 .016)"/><use xlink:href="#DejaVuSans-Oblique-6f" transform="translate(63.477 .016)"/><use xlink:href="#DejaVuSans-Oblique-62" transform="translate(124.658 .016)"/><use xlink:href="#DejaVuSans-30" transform="matrix(.7 0 0 .7 188.135 -16.39)"/></g></g><g clip-path="url(#p77eca1ce1b)" id="text_5"><g transform="matrix(.1625 0 0 -.1625 285.927 273.161)"><use xlink:href="#DejaVuSans-Oblique-62" transform="translate(0 .016)"/><use xlink:href="#DejaVuSans-Oblique-6f" transform="translate(63.477 .016)"/><use xlink:href="#DejaVuSans-Oblique-62" transform="translate(124.658 .016)"/><use xlink:href="#DejaVuSans-31" transform="matrix(.7 0 0 .7 188.135 -16.39)"/></g></g><g clip-path="url(#p77eca1ce1b)" id="text_6"><g transform="matrix(.104 0 0 -.104 338.18 308.224)"><defs><path id="DejaVuSans-32" d="M1228 531h2203V0H469v531q359 372 979 998 621 627 780 809 303 340 423 576 121 236 121 464 0 372-261 606-261 235-680 235-297 0-627-103-329-103-704-313v638q381 153 712 231 332 78 607 78 725 0 1156-363 431-362 431-968 0-288-108-546-107-257-392-607-78-91-497-524-418-433-1181-1211z" transform="scale(.01563)"/></defs><use xlink:href="#DejaVuSans-32"/></g></g><g clip-path="url(#p77eca1ce1b)" id="text_7"><g transform="matrix(.1625 0 0 -.1625 173.427 319.28)"><defs><path id="DejaVuSans-72" d="M2631 2963q-97 56-211 82-114 27-251 27-488 0-749-317t-261-911V0H581v3500h578v-544q182 319 472 473 291 155 707 155 59 0 131-8 72-7 159-23l3-590z" transform="scale(.01563)"/><path id="DejaVuSans-65" d="M3597 1894v-281H953q38-594 358-905t892-311q331 0 642 81t618 244V178Q3153 47 2828-22t-659-69q-838 0-1327 487-489 488-489 1320 0 859 464 1363 464 505 1252 505 706 0 1117-455 411-454 411-1235zm-575 169q-6 471-264 752-258 282-683 282-481 0-770-272t-333-766l2050 4z" transform="scale(.01563)"/><path id="DejaVuSans-63" d="M3122 3366v-538q-244 135-489 202t-495 67q-560 0-870-355-309-354-309-995t309-996q310-354 870-354 250 0 495 67t489 202V134Q2881 22 2623-34q-257-57-548-57-791 0-1257 497-465 497-465 1341 0 856 470 1346 471 491 1290 491 265 0 518-55 253-54 491-163z" transform="scale(.01563)"/><path id="DejaVuSans-69" d="M603 3500h575V0H603v3500zm0 1363h575v-729H603v729z" transform="scale(.01563)"/><path id="DejaVuSans-76" d="M191 3500h609L1894 563l1094 2937h609L2284 0h-781L191 3500z" transform="scale(.01563)"/><path id="DejaVuSans-64" d="M2906 2969v1894h575V0h-575v525q-181-312-458-464-276-152-664-152-634 0-1033 506-398 507-398 1332t398 1331q399 506 1033 506 388 0 664-152 277-151 458-463zM947 1747q0-634 261-995t717-361q456 0 718 361 263 361 263 995t-263 995q-262 361-718 361t-717-361q-261-361-261-995z" transform="scale(.01563)"/><path id="DejaVuSans-5f" d="M3263-1063v-446H-63v446h3326z" transform="scale(.01563)"/><path id="DejaVuSans-6d" d="M3328 2828q216 388 516 572t706 184q547 0 844-383 297-382 297-1088V0h-578v2094q0 503-179 746-178 244-543 244-447 0-707-297-259-296-259-809V0h-578v2094q0 506-178 748t-550 242q-441 0-701-298-259-298-259-808V0H581v3500h578v-544q197 322 472 475t653 153q382 0 649-194 267-193 395-562z" transform="scale(.01563)"/><path id="DejaVuSans-73" d="M2834 3397v-544q-243 125-506 187-262 63-544 63-428 0-642-131t-214-394q0-200 153-314t616-217l197-44q612-131 870-370t258-667q0-488-386-773Q2250-91 1575-91q-281 0-586 55T347 128v594q319-166 628-249 309-82 613-82 406 0 624 139 219 139 219 392 0 234-158 359-157 125-692 241l-200 47q-534 112-772 345-237 233-237 639 0 494 350 762 350 269 994 269 318 0 599-47 282-46 519-140z" transform="scale(.01563)"/><path id="DejaVuSans-61" d="M2194 1759q-697 0-966-159t-269-544q0-306 202-486 202-179 548-179 479 0 768 339t289 901v128h-572zm1147 238V0h-575v531q-197-318-491-470T1556-91q-537 0-855 302-317 302-317 808 0 590 395 890 396 300 1180 300h807v57q0 397-261 614t-733 217q-300 0-585-72-284-72-546-216v532q315 122 612 182 297 61 578 61 760 0 1135-394 375-393 375-1193z" transform="scale(.01563)"/><path id="DejaVuSans-67" d="M2906 1791q0 625-258 968-257 344-723 344-462 0-720-344-258-343-258-968 0-622 258-966t720-344q466 0 723 344 258 344 258 966zm575-1357q0-893-397-1329-396-436-1215-436-303 0-572 45t-522 139v559q253-137 500-202 247-66 503-66 566 0 847 295t281 892v285q-178-310-456-463T1784 0Q1141 0 747 490 353 981 353 1791q0 812 394 1302 394 491 1037 491 388 0 666-153t456-462v531h575V434z" transform="scale(.01563)"/></defs><use xlink:href="#DejaVuSans-72"/><use xlink:href="#DejaVuSans-65" x="38.863"/><use xlink:href="#DejaVuSans-63" x="100.387"/><use xlink:href="#DejaVuSans-65" x="155.367"/><use xlink:href="#DejaVuSans-69" x="216.891"/><use xlink:href="#DejaVuSans-76" x="244.674"/><use xlink:href="#DejaVuSans-65" x="303.854"/><use xlink:href="#DejaVuSans-64" x="365.377"/><use xlink:href="#DejaVuSans-5f" x="428.854"/><use xlink:href="#DejaVuSans-6d" x="478.854"/><use xlink:href="#DejaVuSans-65" x="576.266"/><use xlink:href="#DejaVuSans-73" x="637.789"/><use xlink:href="#DejaVuSans-73" x="689.889"/><use xlink:href="#DejaVuSans-61" x="741.988"/><use xlink:href="#DejaVuSans-67" x="803.268"/><use xlink:href="#DejaVuSans-65" x="866.744"/></g></g><g clip-path="url(#p77eca1ce1b)" id="text_8"><g transform="matrix(.13 0 0 -.13 353.684 86.887)"><defs><path id="DejaVuSans-48" d="M628 4666h631V2753h2294v1913h631V0h-631v2222H1259V0H628v4666z" transform="scale(.01563)"/></defs><use xlink:href="#DejaVuSans-48"/></g></g><path d="M404.917 135.669v-12.05" clip-path="url(#p77eca1ce1b)" fill="none" stroke="#ffffff" stroke-width="2" stroke-linecap="square" id="line2d_32"/><path d="M398.892 129.644h12.05" clip-path="url(#p77eca1ce1b)" fill="none" stroke="#ffffff" stroke-width="2" stroke-linecap="square" id="line2d_33"/><path d="M451.261 60.127v46.345" clip-path="url(#p77eca1ce1b)" fill="none" stroke-dasharray="3.7,1.6" stroke="#000000" id="line2d_34"/><path d="M451.261 106.472v46.344" clip-path="url(#p77eca1ce1b)" fill="none" stroke-dasharray="3.7,1.6" stroke="#000000" id="line2d_35"/><path d="M451.261 152.816v46.344" clip-path="url(#p77eca1ce1b)" fill="none" stroke-dasharray="3.7,1.6" stroke="#000000" id="line2d_36"/><path d="M451.261 199.16v46.345" clip-path="url(#p77eca1ce1b)" fill="none" stroke-dasharray="3.7,1.6" stroke="#000000" id="line2d_37"/><path d="M451.261 245.505v46.344" clip-path="url(#p77eca1ce1b)" fill="none" stroke-dasharray="3.7,1.6" stroke="#000000" id="line2d_38"/><path d="M590.294 60.127v46.345" clip-path="url(#p77eca1ce1b)" fill="none" stroke-dasharray="3.7,1.6" stroke="#000000" id="line2d_39"/><path d="M590.294 106.472v46.344" clip-path="url(#p77eca1ce1b)" fill="none" stroke-dasharray="3.7,1.6" stroke="#000000" id="line2d_40"/><path d="M590.294 152.816v46.344" clip-path="url(#p77eca1ce1b)" fill="none" stroke-dasharray="3.7,1.6" stroke="#000000" id="line2d_41"/><path d="M590.294 199.16v46.345" clip-path="url(#p77eca1ce1b)" fill="none" stroke-dasharray="3.7,1.6" stroke="#000000" id="line2d_42"/><path d="M590.294 245.505v46.344" clip-path="url(#p77eca1ce1b)" fill="none" stroke-dasharray="3.7,1.6" stroke="#000000" id="line2d_43"/><g clip-path="url(#p77eca1ce1b)" id="text_9"><g transform="matrix(.13 0 0 -.13 632.186 179.575)"><defs><path id="DejaVuSans-5a" d="M359 4666h3666v-482L1075 531h3022V0H288v481l2950 3653H359v532z" transform="scale(.01563)"/></defs><use xlink:href="#DejaVuSans-5a"/></g></g><path d="M682.983 60.127v46.345" clip-path="url(#p77eca1ce1b)" fill="none" stroke-dasharray="3.7,1.6" stroke="#000000" id="line2d_44"/><path d="M682.983 106.472v46.344" clip-path="url(#p77eca1ce1b)" fill="none" stroke-dasharray="3.7,1.6" stroke="#000000" id="line2d_45"/><path d="M682.983 152.816v46.344" clip-path="url(#p77eca1ce1b)" fill="none" stroke-dasharray="3.7,1.6" stroke="#000000" id="line2d_46"/><path d="M682.983 199.16v46.345" clip-path="url(#p77eca1ce1b)" fill="none" stroke-dasharray="3.7,1.6" stroke="#000000" id="line2d_47"/><path d="M682.983 245.505v46.344" clip-path="url(#p77eca1ce1b)" fill="none" stroke-dasharray="3.7,1.6" stroke="#000000" id="line2d_48"/><path d="M775.672 60.127v46.345" clip-path="url(#p77eca1ce1b)" fill="none" stroke-dasharray="3.7,1.6" stroke="#000000" id="line2d_49"/><path d="M775.672 106.472v46.344" clip-path="url(#p77eca1ce1b)" fill="none" stroke-dasharray="3.7,1.6" stroke="#000000" id="line2d_50"/><path d="M775.672 152.816v46.344" clip-path="url(#p77eca1ce1b)" fill="none" stroke-dasharray="3.7,1.6" stroke="#000000" id="line2d_51"/><path d="M775.672 199.16v46.345" clip-path="url(#p77eca1ce1b)" fill="none" stroke-dasharray="3.7,1.6" stroke="#000000" id="line2d_52"/><path d="M775.672 245.505v46.344" clip-path="url(#p77eca1ce1b)" fill="none" stroke-dasharray="3.7,1.6" stroke="#000000" id="line2d_53"/><path d="M822.016 274.702v-12.05" clip-path="url(#p77eca1ce1b)" fill="none" stroke="#ffffff" stroke-width="2" stroke-linecap="square" id="line2d_54"/><path d="M815.991 268.677h12.05" clip-path="url(#p77eca1ce1b)" fill="none" stroke="#ffffff" stroke-width="2" stroke-linecap="square" id="line2d_55"/><g clip-path="url(#p77eca1ce1b)" id="text_10"><use xlink:href="#DejaVuSans-48" transform="matrix(.13 0 0 -.13 863.472 225.92)"/></g><path d="M914.705 60.127v46.345" clip-path="url(#p77eca1ce1b)" fill="none" stroke-dasharray="3.7,1.6" stroke="#000000" id="line2d_56"/><path d="M914.705 106.472v46.344" clip-path="url(#p77eca1ce1b)" fill="none" stroke-dasharray="3.7,1.6" stroke="#000000" id="line2d_57"/><path d="M914.705 152.816v46.344" clip-path="url(#p77eca1ce1b)" fill="none" stroke-dasharray="3.7,1.6" stroke="#000000" id="line2d_58"/><path d="M914.705 199.16v46.345" clip-path="url(#p77eca1ce1b)" fill="none" stroke-dasharray="3.7,1.6" stroke="#000000" id="line2d_59"/><path d="M914.705 245.505v46.344" clip-path="url(#p77eca1ce1b)" fill="none" stroke-dasharray="3.7,1.6" stroke="#000000" id="line2d_60"/><g clip-path="url(#p77eca1ce1b)" id="text_11"><use xlink:href="#DejaVuSans-30" transform="matrix(.104 0 0 -.104 972.635 308.224)"/></g><g clip-path="url(#p77eca1ce1b)" id="text_12"><use xlink:href="#DejaVuSans-31" transform="matrix(.104 0 0 -.104 1018.98 308.224)"/></g></g></g><defs><clipPath id="p77eca1ce1b"><path d="M147.247 46.224H1037.981V342.828H147.247z"/></clipPath></defs></svg>